<?xml version="1.0" encoding="utf-8"?>
<!-- Generator: Adobe Illustrator 16.0.4, SVG Export Plug-In . SVG Version: 6.00 Build 0)  -->
<!DOCTYPE svg PUBLIC "-//W3C//DTD SVG 1.1//EN" "http://www.w3.org/Graphics/SVG/1.1/DTD/svg11.dtd">
<svg version="1.1" id="Ebene_1" xmlns="http://www.w3.org/2000/svg" xmlns:xlink="http://www.w3.org/1999/xlink" x="0px" y="0px"
	 width="757px" height="589.333px" viewBox="0 0 757 589.333" enable-background="new 0 0 757 589.333" xml:space="preserve">
<g>
	<path fill="none" d="M514.947,154.21c0.574-4.262-0.297-10.829-1.764-17.302c-2.223-9.824-4.85-19.457-10.07-28.318
		c-2.771-4.706-5.793-5.47-10.021-3.002c-6.236,3.638-12.166,7.776-17.568,12.565c-5.012,4.441-6.271,4.526-10.141-0.927
		c-2.99-4.222-5.783-8.604-9.793-11.955c-2.207-1.842-4.539-3.834-7.771-2.04c-3.774,2.1-8.123,3.236-11.293,6.363
		c-5.873,5.792-11.771,11.566-17.461,17.538c-2.727,2.864-4.449,3.406-7.037-0.354c-6.799-9.878-14.08-19.301-23.844-26.691
		c-7.704-5.833-9.399-6.474-17.371-1.077c-9.906,6.707-16.946,16.158-24.261,25.392c-4.596,5.804-5.848,5.385-10.436-0.468
		c-6.366-8.13-13.24-15.767-22.862-20.316c-5.675-2.683-10.589-1.23-14.614,2.934c-3.28,3.393-6.355,7.146-8.739,11.198
		c-2.596,4.42-4.558,3.553-7.516,0.57c-5.657-5.704-11.554-11.037-19.479-13.725c-3.293-1.116-5.034-0.839-7.308,1.921
		c-3.641,4.426-5.507,9.625-7.508,14.741c-4.46,11.402-5.721,23.484-5.841,35.572c-0.225,22.671,8.595,41.302,27.312,54.344
		c11.413,7.952,25.167,9.783,38.602,12.033c14.001,2.347,28.021,4.482,40.77,11.509c9.215,5.081,13.841,13.155,16.381,22.829
		c0.271,1.027-0.363,2.293-0.578,3.448c-1.066-0.547-2.562-0.815-3.137-1.686c-2.611-3.967-6.447-6.301-10.539-8.234
		c-14.05-6.64-27.752-2.681-41.306,1.793c-7.234,2.388-13.747,6.598-21.158,8.697c-9.03,2.559-17.095,0.004-19.126-10.536
		c-1.301-6.76,0.178-13.596-2.028-20.275c-2.613-7.915-13.759-14.014-20.779-10.974c-2.034,0.882-2.713,1.585-1.626,3.561
		c3.725,6.762,0.505,12.701-3.033,17.947c-6.687,9.911-11.632,20.695-13.471,32.224c-1.406,8.805,0.569,17.699,8.412,24.457
		c10.219,8.81,22.31,8.941,33.992,7.066c7.375-1.188,11.583,0.178,16.394,5.329c10.507,11.261,22.166,12.86,35.823,6.146
		c9.602-4.715,18.734-10.379,29.099-13.543c11.383-3.475,16.171-1.176,19.196,10.25c0.789,2.974,1.312,5.822,5.082,5.787
		c3.942-0.037,8.166-0.404,9.098-5.238c2.466-12.807,9.521-13.983,21.277-9.938c9.597,3.305,17.771,9.438,27.195,13.104
		c15.105,5.877,28.666,4.282,40.104-9.979c1.522-1.904,3.032-2.146,5.78-1.861c8.271,0.854,16.379,4.888,24.935,1.83
		c9.436-3.369,18.446-7.09,21.977-17.875c4.479-13.686-0.192-25.495-6.963-37.003c-4.979-8.465-11.494-16.366-7.795-27.521
		c1.104-3.34-1.992-4.502-5.141-4.064c-16.002,2.23-22.097,10.528-19.236,26.581c1.754,9.834-5.779,18.739-15.799,15.806
		c-9.922-2.905-19.592-6.273-29.105-10.187c-17.229-7.084-33.93-5.795-48.188,7.544c-0.873,0.817-1.835,2.599-2.84,1.909
		c-1.443-0.988-0.779-3.058-0.437-4.579c2.854-12.469,16.111-24.505,28.904-26.938c14.129-2.685,28.271-5.386,42.229-8.828
		c11.556-2.85,23.188-5.964,32.367-14.406C509.782,193.668,515.184,176.281,514.947,154.21z M161.563,409.346
		c6.145-0.189,13.979,0.271,21.791-1.178c19.791-3.668,28.827-17.299,27.509-33.004c-1.4-16.725-11.957-27.332-26.971-34.111
		c-13.814-6.239-28.339-4.703-42.753-4.881c-2.389-0.028-4.37,1.048-4.907,3.078c-0.542,2.056,0.797,4.131,2.869,4.955
		c2.938,1.17,3.93,3.023,3.897,6.184c-0.152,14.367-0.104,28.734-0.048,43.104c0.011,2.863-0.526,5.654-2.985,7.096
		c-2.21,1.295-4.773,1.951-3.576,5.213c1.104,3.004,3.776,3.543,6.614,3.543C148.625,409.348,154.248,409.346,161.563,409.346z
		 M366.285,409.34c3.746,0,7.499-0.137,11.235,0.045c2.632,0.129,3.764-1.391,4.531-3.422c0.869-2.303-0.534-3.475-2.438-4.238
		c-3.976-1.6-4.411-5.211-4.666-8.689c-0.272-3.726,0.28-7.529-0.152-11.223c-0.632-5.363,2.165-8.382,6.071-11.24
		c3.204-2.345,4.7-1.712,6.099,1.836c2.928,7.438,5.979,14.838,9.351,22.077c1.541,3.31,1.934,5.872-1.611,7.796
		c-2.484,1.348-1.938,3.512-1.478,5.443c0.531,2.207,2.661,1.598,4.197,1.607c7.282,0.061,14.563-0.002,21.848-0.002
		c1.816,0,3.324-0.588,3.989-2.359c0.747-1.982-0.562-2.871-2.069-3.883c-2.816-1.895-4.777-4.811-6.023-7.775
		c-4.938-11.742-9.014-23.868-14.39-35.395c-2.468-5.291-0.454-8.24,2.83-11.006c2.239-1.885,4.23-4.388,7.653-4.849
		c1.95-0.267,3.834-1.519,3.521-4.297c-0.272-2.472-2.293-3.238-3.894-3.31c-6.011-0.262-12.067-0.381-18.056,0.078
		c-3.1,0.238-5.277,3.354-3.067,5.756c3.612,3.928,1.05,5.681-1.427,7.896c-3.232,2.887-6.587,5.639-9.745,8.604
		c-1.896,1.777-3.745,0.697-3.404-0.881c0.982-4.555-1.105-10.281,4.219-13.363c2.051-1.188,3.525-2.586,2.574-4.906
		c-0.792-1.934-2.414-3.417-4.792-3.42c-7.463-0.006-14.933-0.118-22.389,0.127c-1.965,0.062-4.271,1.041-5.104,3.07
		c-1.021,2.498,1.311,3.926,2.886,4.918c3.497,2.197,4.125,5.293,4.099,9.017c-0.09,13.108-0.073,26.226-0.037,39.333
		c0.011,3.704-0.582,6.898-4.283,8.9c-1.536,0.832-3.589,2.254-2.748,4.365c0.855,2.145,2.761,3.502,5.434,3.412
		C358.793,409.245,362.543,409.338,366.285,409.34z M659.84,389.284c0.41-4.268-0.67-8.632,1.147-12.884
		c1.076-2.519,2.232-4.347,5.195-4.467c2.977-0.12,4.521,1.575,5.584,4.06c2.844,6.637,4.766,13.551,5.998,20.641
		c0.393,2.268,0.215,4.605-2.396,5.857c-2.184,1.053-2.887,2.936-2.272,5.201c0.615,2.277,3.096,2.443,4.557,2.533
		c5.562,0.332,11.195,0.395,16.742-0.096c4.496-0.398,5.652-3.27,2.82-6.881c-2.619-3.336-4.205-6.906-5.197-11.052
		c-1.715-7.17-3.854-14.259-6.227-21.241c-3.271-9.621-13.843-15.627-22.929-5.725c-2.062,2.249-2.813,2.17-3.018-0.975
		c-0.187-2.801-0.941-5.262-4.594-3.479c-4.263,2.082-8.693,3.957-12.597,6.6c-3.287,2.227-5.967,5.435-0.043,8.14
		c1.486,0.68,2.474,2.123,2.428,3.354c-0.291,8.641,3.15,17.981-4.403,25.354c-1.119,1.1-1.918,2.461-1.168,3.893
		c0.787,1.504,2.637,2.746,4.062,2.166c2.238-0.908,4.031,0.475,6.023,0.299c4.486-0.402,9.129,1.102,13.479-1.086
		c2.318-1.168,4.354-2.934,1.553-5.049C659.227,400.393,659.573,394.922,659.84,389.284z M550.115,369.397
		c1.486,0.299,4.029-0.923,4.781,0.809c0.42,0.971-1.348,3.244-2.564,4.516c-5.622,5.854-11.483,11.479-17.088,17.357
		c-3.709,3.896-7.262,7.955-10.59,12.174c-1.483,1.885-2.729,5.953,0.998,5.365c6.246-0.982,12.051,1.264,18.318,0.627
		c7.051-0.713,14.948-2.4,21.885,2.244c2.412,1.615,4.275,0.006,5.377-2.416c1.875-4.131,3.896-8.205,5.631-12.395
		c0.701-1.693,3-3.655,0.396-5.452c-1.904-1.312-3.49,0.349-4.873,1.456c-6.013,4.818-12.871,7.242-20.533,7.418
		c-1.189,0.027-3.014,0.092-3.455-0.582c-1.062-1.611,0.865-2.469,1.756-3.463c7.717-8.576,15.496-17.094,23.209-25.666
		c2.152-2.396,6.031-4.729,4.541-8.133c-1.731-3.963-6.33-1.879-9.658-2.023c-8.512-0.369-17.521,1.294-25.418-0.997
		c-7.129-2.071-9.879-0.61-12.182,5.365c-0.892,2.308-2.004,4.538-3.162,6.728c-0.947,1.795-1.5,3.83,0.051,5.151
		c1.767,1.504,3.427-0.124,4.896-1.304C537.521,372.09,543.053,369.103,550.115,369.397z M112.463,336.188
		c-3.75,0-7.501,0.061-11.25-0.02c-2.65-0.058-4.579,1.301-5.332,3.521c-0.698,2.063,1.22,3.636,2.846,4.327
		c3.797,1.615,4.281,4.506,4.251,8.1c-0.107,13.331-0.183,26.666,0.044,39.993c0.068,4-1.141,6.874-4.518,8.804
		c-1.727,0.988-3.194,2.006-2.896,4.281c0.303,2.289,2.309,3.271,3.942,3.477c8.429,1.053,16.91,1.439,25.32-0.201
		c1.819-0.354,3.562-1.389,3.646-3.688c0.068-1.943-1.123-3.008-2.793-3.689c-3.904-1.58-4.646-4.719-4.614-8.563
		c0.121-13.122,0.082-26.247,0.033-39.366c-0.015-3.926,0.561-7.322,4.55-9.404c1.483-0.771,3.487-2.199,2.377-4.436
		c-0.938-1.893-2.59-3.197-4.986-3.158C119.545,336.222,116.002,336.174,112.463,336.188z M424.209,386.59
		c-0.73,4.211,0.383,8.584,3.065,12.469c6.117,8.838,18.387,13.223,29.144,11.379c5.698-0.977,10.495-3.537,15.135-6.49
		c2.379-1.52,4.645-4.395,2.475-7.361c-1.932-2.646-3.91,0.067-5.752,1.129c-1.611,0.928-3.229,1.885-4.949,2.576
		c-6.817,2.754-15.645,0.064-18.553-5.52c-1.479-2.836-1.951-4.55,2.307-5.648c7.144-1.848,13.916-5.127,21.066-6.926
		c5.857-1.476,6.9-3.949,3.648-9.421c-5.927-9.954-18.429-15.657-28.037-12.481C430.329,364.737,422.825,373.928,424.209,386.59z
		 M243.335,359.881c-10.19-1.529-21.934,7.548-25.357,17.861c-3.119,9.395-0.229,20.494,8.298,26.479
		c12.175,8.553,23.717,8.559,37.897-0.311c2.709-1.693,6.366-4.512,3.719-7.931c-2.211-2.858-5.06,0.548-7.384,1.97
		c-8.036,4.914-16.084,3.949-21.042-2.548c-3.201-4.194-2.61-5.729,2.485-7.272c6.669-2.021,13.257-4.309,19.935-6.299
		c4.566-1.359,4.805-4.121,3.532-8.103C263.029,366.254,252.587,358.67,243.335,359.881z M611.202,410.633
		c9.238,0.406,16.794-2.799,23.146-9.049c1.252-1.232,2.322-2.828,1.258-4.414c-1.049-1.571-3.029-1.225-4.576-0.578
		c-2.477,1.025-4.812,2.398-7.274,3.463c-7.236,3.135-15.441,0.527-18.771-5.918c-1.201-2.329-1.576-3.887,1.963-4.854
		c7.529-2.051,14.822-4.941,22.328-7.102c4.365-1.26,5.107-3.482,3.467-7.364c-3.578-8.472-14.664-15.503-23.744-14.916
		c-10.129,0.654-20.969,9.313-23.725,18.083C579.855,395.232,593.454,412.323,611.202,410.633z M422.024,501.792
		c2.679,0.334,5.384-0.256,8.192-1.334c11.393-4.379,14.493-14.074,15.524-24.637c1.455-14.881-9.883-25.922-24.617-24.664
		c-10.342,0.885-16.813,8.715-15.688,18.984c0.92,8.432,8.836,13.402,18.753,11.775c7.077-1.158,7.837-0.17,5.45,7.082
		c-0.322,0.979-0.412,2.131-1.004,2.904c-1.603,2.098-3.851,3.068-6.502,2.924c-2.615-0.15-3.541-1.783-3.518-4.197
		c0.026-2.35-0.827-4.121-3.401-4.377c-3.007-0.301-5.802,0.084-7.518,3.062c-1.225,2.135-1.596,4.221-0.013,6.367
		C411.198,500.461,415.986,502.268,422.024,501.792z M466.943,501.84c3.326,0,6.654,0.035,9.98-0.008
		c6.448-0.078,11.389-5.115,11.668-11.68c0.121-2.789-0.791-4.189-3.453-2.537c-3.373,2.092-6.955,2.561-10.732,2.242
		c-2.213-0.189-6.055,0.865-6.264-0.625c-0.283-2.062,3.229-2.945,5.188-4.23c2.935-1.916,5.945-3.711,8.854-5.664
		c5.16-3.467,7.016-8.545,6.307-14.479c-0.813-6.844-9.356-12.908-18.5-13.48c-8.646-0.543-17.453,4.67-19.11,11.521
		c-1.066,4.395,0.252,8.25,3.889,10.953c3.312,2.463,6.963,2.367,10.465,0.207c4.346-2.68,4.32-5.527-0.18-7.916
		c-1.394-0.738-2.646-1.307-2.486-3.053c0.146-1.611,1.447-2.566,2.666-3.23c3.48-1.9,8.639,1.414,8.838,5.838
		c0.226,4.865-2.088,8.562-5.84,11.674c-5.562,4.605-10.973,9.414-16.25,14.348c-1.959,1.83-3.584,4.439-2.521,7.221
		c1.141,2.977,4.168,2.895,6.883,2.896C459.87,501.844,463.406,501.84,466.943,501.84z M500.066,391.104
		c1.289-1.369-0.428-2.773-0.08-4.051c1.15-4.199,0.162-9.434,4.92-12.006c4.398-2.381,6.857,1.095,9.439,3.734
		c1.893,1.936,3.246,1.344,4.242-0.808c0.946-2.045,2.022-4.097,2.555-6.263c0.869-3.562,4.893-7.608,0.906-10.738
		c-3.939-3.098-8.754-0.441-12.83,1.249c-1.883,0.78-4.265,1.684-5.144,4.187c-0.303,0.854-1.364,2.117-1.977,2.062
		c-1.51-0.146-1.285-1.822-1.457-2.921c-0.584-3.702-1.18-7.547-6.332-4.875c-4.369,2.269-8.523,4.968-12.666,7.641
		c-1.643,1.061-3.057,2.829-0.721,4.426c5.729,3.912,4.365,9.729,4.467,15.195c0.104,5.773,0.465,11.422-5.02,15.66
		c-2.56,1.982-1.354,4.717,1.717,5.564c6.487,1.801,13.215,1.312,19.762,0.725c4.562-0.412,5.518-4.311,1.881-7.285
		C499.799,399.387,500.275,395.274,500.066,391.104z M527.316,466.313c0-3.68,0.029-7.008-0.016-10.332
		c-0.021-1.449-0.111-2.77-1.925-3.443c-4.432-1.65-11.739,0.275-14.561,4.191c-5.041,7.018-10.037,14.062-14.932,21.182
		c-1.156,1.68-2.152,3.602-2.672,5.559c-0.906,3.434-0.584,6.207,4.235,5.945c4.354-0.236,8.73-0.074,13.099-0.023
		c1.957,0.021,3.785,0.682,4.502,2.611c0.656,1.775-0.236,3.197-1.894,4.117c-1.502,0.83-3.08,1.834-2.188,3.822
		c0.762,1.699,2.527,1.918,4.279,1.898c4.157-0.037,8.327,0.174,12.477-0.059c4.238-0.238,6.006-1.908,2.498-5.744
		c-2.406-2.629-3.49-4.793,0.854-7.053c2.496-1.307,2.037-5.752,0.689-6.619C525.062,478.038,528.152,471.559,527.316,466.313z
		 M242.272,501.846c8.604-0.01,12.774-2.609,13.776-8.268c0.995-5.615-2.604-10.68-9.486-13.416
		c-2.678-1.068-5.396-2.072-7.953-3.387c-1.259-0.646-3.967-0.855-2.926-3.062c0.812-1.715,2.819-1.621,4.873-0.814
		c3.062,1.188,6.261,1.809,8.741,4.314c0.907,0.918,2.664,2.572,4.092,0.545c1.678-2.385-3.683-10.9-6.759-10.627
		c-3.354,0.312-6.485,0.021-9.782-0.781c-5.343-1.305-12.348,2.145-13.713,6.146c-1.756,5.152,1.582,10.588,8.026,13.438
		c3.592,1.592,7.075,3.426,10.545,5.271c0.785,0.416,2.312,0.777,1.801,2.037c-0.313,0.77-1.526,1.594-2.384,1.65
		c-4.359,0.297-8.504-0.145-12.564-2.357c-2.54-1.383-4.63-6.523-7.122-4.051c-2.144,2.131,1.327,6.256,2.714,9.365
		c0.503,1.133,1.021,2.271,1.696,3.303c0.542,0.828,1.391,1.98,2.459,1.188C233.061,498.809,237.999,503.059,242.272,501.846z
		 M393.617,473.389c-0.009,0-0.015,0-0.021,0c0-5.816,0.081-11.641-0.025-17.461c-0.074-4.107-1.854-5.904-5.964-3.736
		c-4.194,2.217-8.515,4.238-12.501,6.783c-2.5,1.594-3.82,5.523-0.456,6.156c6.441,1.209,5.86,5.168,5.778,9.576
		c-0.081,4.365-0.152,8.736,0.017,13.096c0.135,3.516-0.148,6.354-4.018,8.09c-3.211,1.443-3.52,3.498,0.462,4.824
		c6.095,2.031,12.331,1.439,18.432,0.59c2.988-0.416,5.127-3.293,1.604-5.604c-3.32-2.172-3.351-4.826-3.316-7.967
		C393.652,482.956,393.617,478.172,393.617,473.389z M257.904,484.815c0.174,2.025,0.301,3.973,0.871,6.041
		c3.324,11.99,24.36,14.648,33.244,4.27c1.097-1.281,3.732-2.441,2.07-4.457c-1.538-1.861-3.305,0.021-4.872,0.994
		c-4.368,2.717-8.722,4.807-13.729,1.047c-2.842-2.133-3.858-3.824,0.028-5.635c4.299-2.004,8.648-3.898,12.974-5.846
		c3.023-1.359,4.86-2.629,2.146-6.42c-4.294-5.988-11.628-9.598-17.896-7.869C262.659,469.719,257.877,475.487,257.904,484.815z
		 M320.403,486.053c0.011,0,0.021,0,0.032,0c0,2.916,0.052,5.834-0.019,8.748c-0.048,1.822,0.621,3.191,2.064,4.271
		c4.022,3.012,14.938,2.293,18.655-1.113c1.532-1.404,1.495-2.994,0.735-4.471c-0.812-1.582-2.054-0.391-3.188-0.045
		c-1.819,0.547-3.971,2.664-5.523,0.061c-3.169-5.314-2.356-11.342-1.758-17.02c0.438-4.145,4.675-3.078,7.617-3.471
		c1.873-0.242,3.038-1.277,3.157-3.232c0.125-2.055-1.362-2.564-2.861-2.334c-6.733,1.025-9.191-1.928-8.239-8.396
		c0.235-1.584-0.505-2.971-1.92-3.623c-1.941-0.895-2.334,1.061-3.196,2.086c-2.398,2.855-4.737,5.758-7.224,8.533
		c-2.747,3.07-7.979,6.09,0.407,8.65c1.48,0.453,1.217,2.029,1.24,3.23C320.438,480.639,320.403,483.348,320.403,486.053z
		 M309.901,482.057c0-2.184,0.187-3.662-0.038-5.076c-0.482-3.098,1.77-7.309-1.604-9.086c-3.389-1.787-6.413,1.723-9.553,3.039
		c-0.19,0.08-0.393,0.141-0.578,0.227c-2.088,0.969-2.656,1.982-1.034,4.189c4.076,5.551,1.836,11.893,1.481,17.887
		c-0.125,2.119-4.443,3.6-2.491,6.252c1.711,2.326,5.021,0.893,7.621,1.08c2.265,0.162,4.553,0.035,6.829-0.021
		c2.94-0.072,4.135-2.172,2.285-3.959C308.08,492.004,310.65,486.42,309.901,482.057z M73.039,351.086
		c0.938,2.287-2.23,7.219,2.359,8.979c3.12,1.193,8.317,2.462,10.015-1.689c1.457-3.574,2.893-9.008-1.719-11.824
		c-3.885-2.375-2.354-3.979-0.507-6.256c1.104-1.359,3.748-2.715,2.229-4.49c-1.477-1.729-4.13-1.055-6.361-0.062
		C72.543,338.624,72.72,344.282,73.039,351.086z M288.433,345.03c-0.534-1.994,2.104-6.623-2.161-8.253
		c-3.158-1.207-8.258-2.51-10.061,1.513c-1.602,3.567-2.904,9.104,1.532,11.844c4.282,2.646,2.475,4.215,0.391,6.601
		c-1.01,1.156-3.415,2.354-2.111,3.916c1.161,1.396,3.729,1.671,5.692,0.821c1.849-0.803,3.522-1.771,4.665-3.821
		C288.396,354.02,288.994,350.29,288.433,345.03z M308.553,344.631c-0.409-2.07,1.549-6.08-1.916-7.674
		c-3.271-1.504-7.381-1.936-10.634,0.418c-1.821,1.312-0.645,11.918,1.428,12.721c4.676,1.812,3.112,3.887,0.928,6.468
		c-1.103,1.302-3.849,2.708-2.134,4.427c1.768,1.772,4.499,1.25,6.761-0.543C307.902,356.549,309.029,351.331,308.553,344.631z
		 M59.393,360.532c3.491,0.561,6.15-0.322,7.438-3.896c1.319-3.675,0.86-7.517-2.152-9.509c-4.183-2.768-3.534-5.021-0.445-7.491
		c1.326-1.058,2.189-1.914,1.55-3.474c-0.721-1.748-2.454-1.25-3.789-1.176c-3.569,0.211-5.416,2.789-6.646,5.66
		c-2.216,5.188-1.112,10.812-1.573,16.221C53.485,360.266,56.415,361.057,59.393,360.532z M353.58,79.802
		c-3.066,0.385-5.394,1.878-5.643,5.712c-0.327,5.006,3.234,6.726,6.993,6.952c2.811,0.17,6.029-1.85,5.925-5.172
		C360.734,83.359,358.567,80.283,353.58,79.802z M379.144,88.218c3.515-0.361,5.837-2.131,5.611-5.88
		c-0.263-4.328-3.116-6.87-7.209-6.792c-4.062,0.077-5.608,3.962-5.403,7.048C372.365,85.968,375.28,88.121,379.144,88.218z
		 M331.156,103.188c4.955,0.047,7.131-1.814,7.53-6.217c0.421-4.638-3.006-6.278-5.943-6.315c-3.204-0.037-6.21,2.275-6.054,6.476
		C326.815,100.53,327.601,103.359,331.156,103.188z M402.855,81.227c-3.787-0.382-6.137,0.573-6.295,5.285
		c-0.173,5.129,3.438,5.973,6.729,6.362c4.317,0.51,5.652-3.312,5.83-6.581C409.318,82.583,406.732,80.833,402.855,81.227z
		 M424.021,91.751c-3.396,0.58-4.897,2.528-4.965,6.285c-0.079,4.133,1.472,6.331,5.563,6.25c3.811-0.073,6.153-2.267,6.387-6.065
		C431.282,93.588,427.645,92.685,424.021,91.751z M302.383,463.088c2.209-1.225,6.438-1.494,7.247-5.805
		c0.448-2.408-1.732-4.957-3.919-4.461c-3.61,0.824-7.896,2.014-8.788,6.502C296.346,462.227,298.738,463.075,302.383,463.088z"/>
	<path fill="#333333" d="M514.947,154.21c0.236,22.071-5.162,39.458-20.047,53.145c-9.18,8.441-20.812,11.556-32.367,14.406
		c-13.955,3.442-28.1,6.146-42.229,8.828c-12.793,2.433-26.051,14.468-28.904,26.938c-0.346,1.521-1.01,3.59,0.437,4.579
		c1.005,0.69,1.967-1.092,2.84-1.909c14.258-13.339,30.955-14.628,48.188-7.544c9.517,3.914,19.187,7.282,29.105,10.187
		c10.02,2.933,17.553-5.972,15.799-15.806c-2.857-16.052,3.234-24.35,19.236-26.581c3.146-0.438,6.244,0.724,5.141,4.064
		c-3.699,11.155,2.816,19.056,7.795,27.521c6.771,11.508,11.439,23.317,6.963,37.003c-3.525,10.784-12.541,14.504-21.977,17.874
		c-8.556,3.059-16.662-0.975-24.935-1.83c-2.748-0.285-4.258-0.043-5.78,1.861c-11.438,14.264-24.996,15.857-40.104,9.98
		c-9.428-3.668-17.602-9.799-27.195-13.104c-11.756-4.051-18.812-2.869-21.277,9.936c-0.933,4.834-5.153,5.203-9.098,5.24
		c-3.771,0.035-4.293-2.815-5.082-5.787c-3.025-11.426-7.813-13.727-19.196-10.25c-10.362,3.164-19.497,8.828-29.099,13.543
		c-13.657,6.716-25.316,5.115-35.823-6.146c-4.811-5.15-9.019-6.518-16.394-5.329c-11.685,1.875-23.773,1.74-33.991-7.065
		c-7.844-6.756-9.818-15.65-8.413-24.458c1.838-11.528,6.787-22.312,13.471-32.224c3.538-5.246,6.758-11.185,3.033-17.947
		c-1.087-1.975-0.408-2.679,1.626-3.561c7.021-3.04,18.167,3.059,20.782,10.974c2.204,6.679,0.727,13.515,2.025,20.275
		c2.031,10.54,10.099,13.095,19.126,10.536c7.411-2.099,13.924-6.309,21.158-8.697c13.553-4.474,27.256-8.433,41.306-1.793
		c4.092,1.934,7.928,4.268,10.539,8.234c0.575,0.871,2.067,1.139,3.137,1.688c0.214-1.155,0.85-2.421,0.578-3.448
		c-2.541-9.674-7.166-17.749-16.381-22.829c-12.746-7.027-26.769-9.162-40.77-11.509c-13.436-2.25-27.188-4.082-38.602-12.033
		c-18.72-13.042-27.536-31.672-27.312-54.344c0.12-12.087,1.381-24.17,5.841-35.572c2.001-5.116,3.867-10.315,7.508-14.741
		c2.271-2.761,4.015-3.037,7.308-1.921c7.925,2.688,13.82,8.021,19.479,13.725c2.958,2.983,4.919,3.851,7.517-0.57
		c2.382-4.053,5.46-7.805,8.738-11.198c4.025-4.164,8.94-5.616,14.614-2.934c9.622,4.549,16.496,12.186,22.862,20.316
		c4.589,5.854,5.84,6.272,10.436,0.468c7.312-9.234,14.354-18.686,24.261-25.392c7.974-5.397,9.667-4.756,17.371,1.077
		c9.764,7.39,17.045,16.813,23.844,26.691c2.588,3.761,4.312,3.219,7.037,0.354c5.689-5.972,11.588-11.747,17.461-17.538
		c3.17-3.126,7.519-4.263,11.293-6.363c3.229-1.794,5.562,0.198,7.771,2.04c4.01,3.351,6.803,7.733,9.793,11.955
		c3.869,5.453,5.129,5.369,10.141,0.927c5.402-4.789,11.332-8.927,17.568-12.565c4.229-2.467,7.252-1.703,10.021,3.002
		c5.224,8.861,7.851,18.494,10.07,28.318C514.65,143.381,515.521,149.948,514.947,154.21z M417.938,179.696
		c1.157-13.042-5.919-36.544-14.729-49.292c-6.263-9.055-10.992-19.547-21.825-24.729c-2.37-1.133-4.079-1.654-6.151,0.119
		c-2.353,2.013-5.011,3.713-7.146,5.925c-14.943,15.479-25.506,33.102-28.457,54.974c-2.562,18.964,0.307,36.529,10.666,52.674
		c1.617,2.525,3.577,5.044,6.595,6.271c0.703-3.169-0.991-5.869-2.048-8.538c-8.084-20.421-3.175-42.51,11.924-58.134
		c10.438-10.806,20.372-5.093,26.699,3.756c4.378,6.124,7.638,13.021,9.357,20.642c3.002,13.27,4.307,26.292-1.996,38.993
		c-0.566,1.15-1.569,2.64-0.588,3.338c1.646,1.171,2.271-1.025,3.195-1.875c1.202-1.108,2.43-2.342,3.182-3.768
		C413.221,207.527,418.465,194.592,417.938,179.696z M471.661,160.345c-0.461-2.782-0.965-5.199-1.243-7.64
		c-1.638-14.095-7.808-26.249-15.994-37.54c-2.979-4.105-6.336-3.728-10.144-1.002c-7.494,5.365-13.03,12.451-18.778,19.542
		c-4.418,5.452-5.133,10.273-2.511,16.451c5.019,11.809,4.939,24.277,4.501,36.845c-0.318,9.229-4.153,17.514-5.943,26.325
		c-0.269,1.317-0.15,2.709-0.214,4.067c0.9-1.089,2.06-2.056,2.673-3.291c3.838-7.744,7.684-15.442,10.305-23.774
		c3.088-9.807,6.762-19.52,14.598-26.815c5.009-4.661,8.853-3.946,12.365,2.029c1.799,3.057,2.818,6.375,3.773,9.746
		c0.266,0.94,0.83,2.222,1.944,1.956c0.798-0.188,1.783-1.265,1.953-2.094C469.99,170.126,470.823,165.062,471.661,160.345z
		 M335.316,144.149c0-2.462,0.302-3.457-0.045-4.1c-6.4-11.875-13.984-22.721-26.505-28.971c-2.09-1.042-3.764-0.218-5.195,1.898
		c-4.044,5.98-8.067,11.932-11.138,18.512c-5.943,12.748-6.201,26.167-4.845,39.761c0.145,1.439,0.49,3.768,2.123,4.072
		c2.09,0.391,2.097-2.17,2.907-3.457c1.425-2.261,2.395-4.81,3.822-7.067c4.887-7.708,8.981-7.804,14.38-0.398
		c6.12,8.394,10.497,17.558,12.976,27.725c1.599,6.559,4.05,12.923,7.697,18.686c0.659,1.041,1.336,2.529,3.03,2.549
		c-0.222-1.205-0.324-2.446-0.685-3.608c-5.468-17.678-6.52-35.545-2.16-53.593C332.781,151.587,334.4,147.137,335.316,144.149z
		 M507.691,150.968c-1.35-11.846-3.975-23.003-8.406-33.7c-1.213-2.93-3.19-3.614-5.944-1.993c-1.777,1.045-3.74,1.861-5.322,3.147
		c-6.336,5.163-14.531,9.838-11.646,19.819c2.693,9.316,2.729,18.567,2.224,27.982c-0.688,12.741-4.299,24.599-10.572,35.722
		c-1.309,2.318-4.625,6.2-2.461,7.266c2.721,1.341,4.693-3.062,6.115-5.688c8.325-15.359,18.049-29.699,31.194-41.345
		C506.616,158.857,506.404,154.539,507.691,150.968z M281.761,133.683c0.287-2.673-0.592-5.055-2.2-6.981
		c-4.242-5.083-8.847-9.685-15.167-12.381c-3.208-1.369-4.704-0.903-6.295,2.204c-5.875,11.465-8.067,23.686-8.224,36.415
		c-0.026,2.028,0.659,3.498,2.15,4.875c15.365,14.155,27.473,30.73,36.525,49.544c0.659,1.369,1.608,3.107,3.097,2.224
		c2.155-1.277-0.306-2.262-0.86-3.302c-7.358-13.739-13.568-28.023-12.624-43.894C278.732,152.814,279.062,143.055,281.761,133.683z
		 M415.036,270.659c-13.649-0.006-22.843,5.646-25.793,16.017c-0.351,1.229-1.014,2.475-0.104,3.462
		c1.108,1.205,2.54,0.019,3.29-0.543c14.391-10.771,27.9-6.095,41.17,2.249c4.176,2.628,7.854,6.202,12.271,8.245
		c5.845,2.701,11.511,7.443,18.9,2.861c3.756-2.33,2.285-3.248,0.01-4.984c-6.383-4.875-12.553-10.042-19.106-14.668
		C436.592,276.89,427.557,270.109,415.036,270.659z M366.823,287.207c-0.383-6.38-8.133-14.8-14.979-16.436
		c-9.825-2.345-19.054-0.51-28.118,3.49c-10.907,4.813-19.923,12.362-29.015,19.772c-2.009,1.639-5.926,3.246-4.231,6.654
		c1.521,3.058,5.52,3.207,8.675,3.989c0.639,0.156,1.474-0.645,2.257-0.875c6.456-1.904,11.67-5.93,17.021-9.779
		c8.125-5.85,15.739-12.479,27.002-11.8c6.863,0.414,12.964,1.805,18.401,6.019c0.766,0.592,1.973,1.127,2.835,0.958
		C367.752,288.99,366.97,287.918,366.823,287.207z"/>
	<path fill="#333333" d="M161.563,409.346c-7.313,0-12.938,0.002-18.561-0.002c-2.838,0-5.511-0.539-6.614-3.543
		c-1.197-3.262,1.366-3.918,3.576-5.213c2.459-1.439,2.996-4.231,2.985-7.096c-0.055-14.369-0.104-28.736,0.048-43.104
		c0.03-3.157-0.961-5.015-3.897-6.185c-2.072-0.824-3.411-2.898-2.869-4.955c0.537-2.031,2.521-3.105,4.907-3.078
		c14.414,0.179,28.938-1.357,42.753,4.881c15.014,6.779,25.568,17.391,26.971,34.111c1.317,15.705-7.719,29.336-27.509,33.004
		C175.541,409.616,167.706,409.157,161.563,409.346z M189.174,375.314c0-1.661,0.081-3.329-0.013-4.985
		c-0.624-11.095-8.413-21.056-18.253-23.172c-4.557-0.98-9.146-0.062-9.221,5.277c-0.18,13.436-1.253,26.875,0.419,40.35
		c0.784,6.309,4.446,6.322,8.67,5.623C183.375,396.319,190.519,386.038,189.174,375.314z"/>
	<path fill="#333333" d="M366.285,409.338c-3.742,0-7.492-0.094-11.233,0.029c-2.672,0.09-4.575-1.271-5.434-3.412
		c-0.841-2.111,1.212-3.533,2.748-4.365c3.701-2.002,4.293-5.198,4.283-8.902c-0.036-13.109-0.053-26.223,0.037-39.333
		c0.026-3.722-0.601-6.817-4.099-9.015c-1.576-0.993-3.908-2.42-2.886-4.918c0.832-2.031,3.139-3.01,5.104-3.072
		c7.456-0.245,14.925-0.131,22.389-0.126c2.379,0.002,4,1.487,4.792,3.419c0.952,2.322-0.522,3.721-2.574,4.908
		c-5.324,3.082-3.233,8.81-4.219,13.363c-0.341,1.578,1.509,2.656,3.404,0.881c3.158-2.965,6.513-5.717,9.745-8.604
		c2.477-2.218,5.039-3.97,1.427-7.896c-2.209-2.402-0.029-5.52,3.067-5.756c5.985-0.459,12.045-0.34,18.056-0.078
		c1.601,0.066,3.618,0.838,3.894,3.308c0.312,2.78-1.57,4.032-3.521,4.297c-3.423,0.461-5.414,2.964-7.653,4.847
		c-3.284,2.769-5.298,5.715-2.83,11.006c5.376,11.525,9.45,23.651,14.39,35.396c1.247,2.967,3.207,5.883,6.023,7.773
		c1.509,1.012,2.816,1.898,2.069,3.883c-0.665,1.771-2.173,2.359-3.989,2.359c-7.281,0-14.562,0.062-21.848,0.002
		c-1.536-0.01-3.666,0.6-4.197-1.607c-0.464-1.932-1.01-4.098,1.477-5.439c3.547-1.924,3.153-4.486,1.612-7.795
		c-3.372-7.24-6.423-14.645-9.351-22.078c-1.396-3.547-2.895-4.183-6.099-1.836c-3.906,2.856-6.701,5.877-6.071,11.238
		c0.435,3.691-0.12,7.497,0.152,11.225c0.255,3.479,0.69,7.09,4.666,8.688c1.901,0.768,3.307,1.939,2.438,4.238
		c-0.771,2.031-1.899,3.551-4.531,3.422C373.784,409.204,370.031,409.34,366.285,409.338z"/>
	<path fill="#333333" d="M659.84,389.284c-0.269,5.639-0.613,11.109,4.748,15.164c2.801,2.117,0.768,3.881-1.554,5.049
		c-4.35,2.188-8.987,0.686-13.479,1.086c-1.992,0.178-3.785-1.207-6.023-0.299c-1.428,0.58-3.274-0.662-4.062-2.164
		c-0.75-1.43,0.049-2.793,1.168-3.893c7.557-7.372,4.115-16.715,4.406-25.354c0.043-1.23-0.941-2.674-2.431-3.354
		c-5.924-2.705-3.244-5.913,0.043-8.14c3.9-2.643,8.334-4.518,12.597-6.6c3.649-1.781,4.408,0.682,4.594,3.479
		c0.201,3.145,0.953,3.224,3.018,0.975c9.086-9.904,19.656-3.898,22.929,5.725c2.37,6.982,4.512,14.071,6.227,21.242
		c0.992,4.145,2.578,7.715,5.197,11.049c2.832,3.611,1.676,6.482-2.82,6.881c-5.547,0.49-11.18,0.43-16.742,0.096
		c-1.461-0.09-3.938-0.256-4.557-2.531c-0.611-2.268,0.092-4.148,2.272-5.199c2.611-1.256,2.789-3.596,2.396-5.859
		c-1.232-7.09-3.154-14.004-5.998-20.641c-1.064-2.481-2.607-4.18-5.584-4.06c-2.963,0.12-4.119,1.948-5.195,4.467
		C659.17,380.652,660.25,385.017,659.84,389.284z"/>
	<path fill="#333333" d="M550.115,369.397c-7.062-0.295-12.596,2.693-17.688,6.779c-1.474,1.18-3.131,2.808-4.896,1.304
		c-1.551-1.321-0.998-3.356-0.051-5.151c1.158-2.188,2.271-4.42,3.162-6.728c2.303-5.978,5.053-7.437,12.182-5.365
		c7.896,2.291,16.906,0.628,25.418,0.997c3.328,0.146,7.927-1.938,9.658,2.023c1.49,3.404-2.389,5.736-4.541,8.133
		c-7.713,8.572-15.492,17.09-23.209,25.666c-0.891,0.994-2.815,1.852-1.756,3.463c0.44,0.674,2.266,0.609,3.455,0.582
		c7.662-0.176,14.521-2.6,20.533-7.418c1.383-1.107,2.969-2.768,4.873-1.456c2.604,1.797,0.307,3.759-0.396,5.452
		c-1.733,4.188-3.756,8.264-5.631,12.395c-1.102,2.422-2.965,4.031-5.377,2.416c-6.937-4.646-14.834-2.957-21.885-2.244
		c-6.271,0.637-12.072-1.609-18.318-0.627c-3.729,0.588-2.481-3.48-0.998-5.365c3.328-4.219,6.881-8.278,10.59-12.174
		c5.604-5.879,11.466-11.504,17.088-17.359c1.22-1.27,2.984-3.543,2.564-4.514C554.146,368.475,551.604,369.696,550.115,369.397z"/>
	<path fill="#333333" d="M112.463,336.185c3.54-0.011,7.082,0.037,10.623-0.024c2.396-0.039,4.051,1.271,4.989,3.159
		c1.107,2.235-0.896,3.662-2.38,4.435c-3.99,2.082-4.562,5.48-4.55,9.404c0.048,13.121,0.087,26.245-0.03,39.368
		c-0.036,3.849,0.71,6.985,4.611,8.565c1.67,0.682,2.861,1.744,2.793,3.688c-0.081,2.301-1.823,3.334-3.646,3.689
		c-8.41,1.637-16.894,1.254-25.32,0.201c-1.636-0.203-3.642-1.188-3.942-3.477c-0.301-2.275,1.172-3.293,2.896-4.281
		c3.377-1.93,4.585-4.806,4.518-8.806c-0.228-13.325-0.151-26.661-0.044-39.991c0.03-3.596-0.454-6.484-4.251-8.102
		c-1.626-0.689-3.544-2.266-2.846-4.327c0.753-2.222,2.681-3.575,5.332-3.521C104.961,336.249,108.712,336.188,112.463,336.185z"/>
	<path fill="#333333" d="M424.209,386.59c-1.384-12.662,6.12-21.854,19.549-26.295c9.608-3.176,22.11,2.525,28.037,12.479
		c3.252,5.475,2.209,7.945-3.648,9.42c-7.15,1.801-13.926,5.079-21.066,6.928c-4.258,1.101-3.782,2.812-2.307,5.647
		c2.908,5.581,11.732,8.271,18.553,5.521c1.72-0.691,3.338-1.65,4.949-2.578c1.842-1.062,3.82-3.772,5.752-1.127
		c2.17,2.967-0.096,5.842-2.475,7.359c-4.637,2.953-9.437,5.516-15.135,6.488c-10.757,1.848-23.023-2.541-29.144-11.379
		C424.592,395.174,423.479,390.801,424.209,386.59z M439.861,377.236c0.188,2.751-0.805,6.252,3.781,6.312
		c4.66,0.062,12.824-4.289,12.863-6.768c0.062-4.121-4.961-9.402-9.104-9.566C443.01,367.036,439.836,371.254,439.861,377.236z"/>
	<path fill="#333333" d="M243.335,359.881c9.252-1.211,19.691,6.373,22.084,13.853c1.271,3.981,1.034,6.74-3.532,8.103
		c-6.678,1.99-13.266,4.276-19.935,6.301c-5.099,1.545-5.688,3.076-2.485,7.271c4.958,6.496,13.006,7.461,21.042,2.547
		c2.324-1.422,5.172-4.828,7.384-1.97c2.646,3.419-1.01,6.237-3.719,7.931c-14.183,8.865-25.725,8.859-37.897,0.312
		c-8.527-5.988-11.417-17.09-8.298-26.482C221.404,367.429,233.145,358.352,243.335,359.881z M241.012,366.911
		c-3.939-0.119-9.233,4.373-8.282,8.096c0.726,2.828-1.354,7.828,3.745,8.441c4.361,0.522,13.354-4.629,13.604-7.098
		C250.449,372.668,245.037,367.032,241.012,366.911z"/>
	<path fill="#333333" d="M611.202,410.633c-17.747,1.689-31.35-15.4-25.934-32.646c2.756-8.768,13.596-17.429,23.725-18.083
		c9.08-0.587,20.166,6.444,23.744,14.916c1.644,3.88,0.898,6.106-3.467,7.364c-7.506,2.158-14.799,5.051-22.328,7.1
		c-3.539,0.967-3.164,2.523-1.963,4.854c3.328,6.444,11.533,9.054,18.771,5.917c2.466-1.062,4.802-2.438,7.275-3.463
		c1.547-0.645,3.527-0.992,4.576,0.578c1.064,1.586-0.006,3.184-1.258,4.414C627.995,407.834,620.443,411.04,611.202,410.633z
		 M599.875,377.48c0.264,2.495-0.146,5.944,4.006,6.022c6.678,0.125,12.901-3.748,12.729-7.582
		c-0.166-3.656-6.033-9.105-9.672-8.982C603.359,367.06,599.825,372.17,599.875,377.48z"/>
	<path fill="#333333" d="M422.024,501.792c-6.038,0.477-10.825-1.33-14.338-6.105c-1.583-2.145-1.212-4.23,0.013-6.365
		c1.716-2.98,4.511-3.363,7.518-3.064c2.574,0.258,3.431,2.027,3.401,4.377c-0.023,2.416,0.899,4.047,3.518,4.197
		c2.651,0.146,4.899-0.824,6.502-2.924c0.592-0.771,0.682-1.924,1.004-2.902c2.387-7.252,1.627-8.24-5.45-7.082
		c-9.917,1.625-17.833-3.346-18.753-11.775c-1.125-10.271,5.35-18.102,15.691-18.986c14.731-1.256,26.069,9.783,24.614,24.664
		c-1.03,10.562-4.135,20.258-15.524,24.637C427.406,501.536,424.7,502.125,422.024,501.792z M430.721,469.122
		c0.049-5.664-0.937-10.074-5.392-10.607c-4.182-0.502-5.375,3.344-5.521,7.287c-0.162,4.4,0.875,8.396,5.609,8.689
		C429.084,474.719,431.115,471.62,430.721,469.122z"/>
	<path fill="#333333" d="M466.943,501.84c-3.535,0-7.07,0.004-10.604,0c-2.718-0.004-5.742,0.078-6.886-2.898
		c-1.062-2.781,0.562-5.389,2.521-7.219c5.277-4.934,10.688-9.74,16.25-14.348c3.752-3.107,6.062-6.809,5.84-11.674
		c-0.199-4.424-5.355-7.738-8.838-5.838c-1.219,0.664-2.521,1.619-2.666,3.229c-0.158,1.746,1.096,2.312,2.486,3.051
		c4.5,2.393,4.522,5.238,0.18,7.916c-3.502,2.162-7.15,2.26-10.465-0.207c-3.639-2.699-4.955-6.561-3.892-10.949
		c1.66-6.854,10.47-12.062,19.113-11.521c9.144,0.572,17.687,6.639,18.5,13.48c0.709,5.934-1.146,11.012-6.307,14.479
		c-2.908,1.953-5.922,3.748-8.854,5.664c-1.959,1.281-5.471,2.166-5.188,4.229c0.209,1.492,4.051,0.438,6.264,0.625
		c3.777,0.32,7.359-0.15,10.732-2.242c2.662-1.65,3.572-0.252,3.453,2.537c-0.279,6.561-5.22,11.602-11.669,11.68
		C473.598,501.875,470.27,501.84,466.943,501.84z"/>
	<path fill="#333333" d="M500.066,391.104c0.209,4.171-0.268,8.283,3.666,11.498c3.637,2.975,2.682,6.875-1.881,7.287
		c-6.547,0.59-13.271,1.076-19.762-0.725c-3.068-0.855-4.273-3.584-1.718-5.564c5.482-4.242,5.121-9.887,5.021-15.662
		c-0.103-5.466,1.264-11.283-4.467-15.195c-2.336-1.597-0.922-3.365,0.721-4.426c4.143-2.673,8.297-5.372,12.666-7.641
		c5.152-2.672,5.748,1.173,6.332,4.875c0.172,1.099-0.053,2.773,1.457,2.921c0.608,0.057,1.674-1.206,1.977-2.062
		c0.879-2.506,3.261-3.402,5.144-4.188c4.076-1.689,8.891-4.346,12.83-1.249c3.983,3.13-0.037,7.178-0.906,10.739
		c-0.529,2.166-1.605,4.217-2.555,6.262c-0.996,2.146-2.353,2.738-4.242,0.805c-2.582-2.64-5.041-6.111-9.439-3.732
		c-4.758,2.574-3.77,7.808-4.92,12.006C499.639,388.331,500.125,390.292,500.066,391.104z"/>
	<path fill="#333333" d="M527.316,466.313c0.836,5.246-2.254,11.725,4.455,16.053c1.348,0.869,1.807,5.318-0.689,6.619
		c-4.348,2.262-3.264,4.426-0.854,7.055c3.508,3.836,1.74,5.506-2.498,5.742c-4.146,0.232-8.316,0.021-12.475,0.061
		c-1.753,0.021-3.521-0.199-4.281-1.895c-0.894-1.988,0.688-2.992,2.188-3.824c1.654-0.918,2.551-2.342,1.894-4.117
		c-0.715-1.934-2.545-2.588-4.502-2.611c-4.365-0.049-8.742-0.211-13.099,0.025c-4.819,0.262-5.145-2.518-4.235-5.947
		c0.52-1.957,1.516-3.879,2.672-5.559c4.895-7.117,9.891-14.164,14.932-21.18c2.818-3.918,10.129-5.848,14.562-4.193
		c1.812,0.676,1.899,1.994,1.924,3.443C527.346,459.307,527.316,462.633,527.316,466.313z M515.463,473.006
		c-0.812-1.783,1.379-5-1.158-5.752c-1.824-0.543-2.104,3.078-3.635,4.449c-0.875,0.783-1.312,2.047-2.031,3.029
		c-1.062,1.443-2.803,3.525-1.185,4.623c1.896,1.273,4.988,1.188,7.021-0.273C516.305,477.772,515.092,475.221,515.463,473.006z"/>
	<path fill="#333333" d="M242.272,501.846c-4.271,1.213-9.211-3.037-13.965,0.498c-1.068,0.793-1.917-0.359-2.459-1.188
		c-0.675-1.029-1.193-2.172-1.696-3.307c-1.387-3.107-4.855-7.232-2.714-9.361c2.492-2.479,4.582,2.666,7.122,4.051
		c4.062,2.213,8.205,2.654,12.564,2.359c0.855-0.062,2.067-0.887,2.384-1.652c0.512-1.26-1.016-1.621-1.801-2.039
		c-3.471-1.846-6.954-3.682-10.545-5.27c-6.445-2.855-9.782-8.285-8.026-13.439c1.365-4.004,8.37-7.447,13.713-6.145
		c3.297,0.803,6.431,1.092,9.782,0.779c3.077-0.275,8.438,8.24,6.759,10.625c-1.428,2.029-3.185,0.373-4.092-0.545
		c-2.48-2.51-5.682-3.131-8.741-4.314c-2.054-0.805-4.062-0.896-4.873,0.814c-1.041,2.203,1.667,2.412,2.926,3.062
		c2.558,1.311,5.275,2.314,7.953,3.385c6.883,2.736,10.481,7.801,9.486,13.418C255.046,499.235,250.873,501.836,242.272,501.846z"/>
	<path fill="#333333" d="M393.617,473.389c0,4.783,0.032,9.566-0.013,14.35c-0.031,3.139-0.004,5.793,3.316,7.967
		c3.522,2.309,1.387,5.186-1.604,5.602c-6.102,0.854-12.337,1.443-18.432-0.588c-3.979-1.328-3.673-3.381-0.462-4.826
		c3.864-1.732,4.15-4.568,4.018-8.09c-0.169-4.354-0.098-8.729-0.017-13.096c0.082-4.408,0.663-8.367-5.778-9.576
		c-3.364-0.631-2.044-4.561,0.456-6.156c3.986-2.543,8.308-4.561,12.501-6.779c4.107-2.168,5.89-0.371,5.964,3.734
		c0.106,5.82,0.025,11.646,0.025,17.461C393.605,473.389,393.611,473.389,393.617,473.389z"/>
	<path fill="#333333" d="M257.913,484.815c-0.035-9.328,4.747-15.096,14.821-17.873c6.271-1.73,13.604,1.881,17.896,7.867
		c2.717,3.791,0.88,5.062-2.146,6.422c-4.323,1.945-8.675,3.842-12.974,5.846c-3.889,1.811-2.87,3.502-0.028,5.633
		c5.009,3.762,9.36,1.67,13.729-1.047c1.565-0.973,3.334-2.854,4.872-0.992c1.663,2.02-0.975,3.176-2.07,4.457
		c-8.884,10.379-29.92,7.721-33.244-4.27C258.202,488.788,258.075,486.842,257.913,484.815z M272.108,472.764
		c-1.224,0.057-3.683,0.688-3.417,4.361c0.162,2.227-1.129,6.113,2.326,5.867c2.91-0.209,7.581-0.447,7.985-5.105
		C279.28,474.698,276.855,473.278,272.108,472.764z"/>
	<path fill="#333333" d="M320.403,486.053c0-2.705,0.035-5.414-0.017-8.121c-0.023-1.201,0.24-2.779-1.24-3.232
		c-8.385-2.561-3.154-5.58-0.407-8.65c2.484-2.773,4.822-5.682,7.224-8.533c0.862-1.023,1.255-2.979,3.196-2.086
		c1.416,0.652,2.155,2.039,1.92,3.623c-0.955,6.475,1.504,9.43,8.239,8.396c1.499-0.23,2.986,0.281,2.861,2.334
		c-0.119,1.955-1.284,2.99-3.157,3.234c-2.942,0.391-7.179-0.674-7.617,3.469c-0.601,5.678-1.411,11.703,1.758,17.02
		c1.556,2.605,3.705,0.484,5.523-0.061c1.135-0.344,2.375-1.537,3.188,0.045c0.761,1.477,0.798,3.062-0.734,4.471
		c-3.72,3.406-14.633,4.125-18.655,1.113c-1.442-1.078-2.112-2.447-2.065-4.271c0.069-2.914,0.02-5.832,0.02-8.748
		C320.424,486.053,320.412,486.053,320.403,486.053z"/>
	<path fill="#333333" d="M309.901,482.057c0.749,4.363-1.818,9.947,2.921,14.531c1.85,1.787,0.655,3.887-2.285,3.959
		c-2.276,0.057-4.564,0.184-6.829,0.021c-2.601-0.189-5.91,1.246-7.621-1.08c-1.952-2.652,2.366-4.133,2.491-6.252
		c0.354-5.994,2.595-12.336-1.481-17.891c-1.622-2.207-1.054-3.223,1.034-4.188c0.188-0.086,0.388-0.146,0.578-0.229
		c3.14-1.314,6.164-4.824,9.553-3.037c3.371,1.775,1.119,5.986,1.604,9.086C310.085,478.395,309.901,479.874,309.901,482.057z"/>
	<path fill="#333333" d="M73.039,351.086c-0.319-6.805-0.496-12.463,6.019-15.35c2.231-0.986,4.887-1.66,6.361,0.062
		c1.518,1.777-1.127,3.133-2.229,4.492c-1.847,2.276-3.378,3.881,0.507,6.256c4.608,2.816,3.176,8.25,1.719,11.824
		c-1.694,4.151-6.895,2.885-10.015,1.689C70.809,358.305,73.979,353.374,73.039,351.086z"/>
	<path fill="#333333" d="M288.433,345.03c0.562,5.26-0.037,8.989-2.053,12.617c-1.139,2.05-2.816,3.021-4.665,3.82
		c-1.966,0.851-4.531,0.572-5.692-0.82c-1.304-1.564,1.104-2.76,2.111-3.916c2.084-2.386,3.894-3.952-0.391-6.6
		c-4.438-2.737-3.134-8.274-1.532-11.842c1.802-4.022,6.899-2.723,10.061-1.516C290.537,338.407,287.899,343.036,288.433,345.03z"/>
	<path fill="#333333" d="M308.553,344.631c0.476,6.699-0.651,11.918-5.567,15.813c-2.262,1.792-4.993,2.315-6.761,0.546
		c-1.715-1.722,1.031-3.125,2.134-4.43c2.188-2.581,3.749-4.652-0.928-6.468c-2.07-0.806-3.249-11.406-1.428-12.724
		c3.253-2.351,7.362-1.922,10.634-0.418C310.103,338.551,308.144,342.561,308.553,344.631z"/>
	<path fill="#333333" d="M59.393,360.532c-2.978,0.524-5.907-0.267-5.619-3.662c0.46-5.408-0.643-11.035,1.573-16.22
		c1.229-2.871,3.075-5.45,6.646-5.659c1.334-0.078,3.067-0.574,3.787,1.174c0.644,1.561-0.222,2.416-1.548,3.475
		c-3.089,2.472-3.735,4.729,0.445,7.49c3.016,1.99,3.474,5.832,2.152,9.51C65.542,360.209,62.883,361.092,59.393,360.532z"/>
	<path fill="#333333" d="M353.58,79.802c4.983,0.481,7.151,3.558,7.275,7.492c0.104,3.322-3.114,5.342-5.925,5.172
		c-3.759-0.226-7.319-1.946-6.993-6.952C348.19,81.68,350.514,80.187,353.58,79.802z"/>
	<path fill="#333333" d="M379.144,88.218c-3.864-0.097-6.777-2.25-7.002-5.624c-0.205-3.086,1.343-6.972,5.403-7.048
		c4.094-0.078,6.947,2.464,7.209,6.792C384.98,86.086,382.656,87.856,379.144,88.218z"/>
	<path fill="#333333" d="M331.156,103.188c-3.556,0.171-4.342-2.659-4.467-6.056c-0.156-4.201,2.85-6.513,6.054-6.476
		c2.938,0.037,6.365,1.677,5.943,6.315C338.285,101.375,336.112,103.235,331.156,103.188z"/>
	<path fill="#333333" d="M402.855,81.227c3.877-0.393,6.463,1.356,6.266,5.065c-0.178,3.269-1.513,7.091-5.829,6.581
		c-3.289-0.389-6.901-1.233-6.729-6.362C396.719,81.8,399.068,80.845,402.855,81.227z"/>
	<path fill="#333333" d="M424.021,91.751c3.624,0.934,7.265,1.837,6.985,6.47c-0.23,3.799-2.576,5.993-6.387,6.065
		c-4.095,0.08-5.646-2.117-5.563-6.25C419.12,94.279,420.625,92.332,424.021,91.751z"/>
	<path fill="#333333" d="M302.383,463.088c-3.646-0.014-6.037-0.861-5.46-3.764c0.892-4.488,5.178-5.684,8.788-6.502
		c2.187-0.496,4.367,2.053,3.919,4.461C308.822,461.594,304.592,461.864,302.383,463.088z"/>
	<path fill="none" d="M417.938,179.696c0.526,14.896-4.718,27.831-11.321,40.357c-0.752,1.426-1.979,2.66-3.182,3.768
		c-0.924,0.85-1.551,3.045-3.195,1.875c-0.981-0.698,0.021-2.188,0.588-3.338c6.303-12.7,4.998-25.723,1.996-38.993
		c-1.723-7.621-4.979-14.518-9.357-20.642c-6.327-8.849-16.26-14.562-26.699-3.756c-15.101,15.624-20.008,37.713-11.924,58.134
		c1.058,2.668,2.751,5.369,2.048,8.538c-3.018-1.227-4.978-3.746-6.595-6.271c-10.359-16.145-13.229-33.71-10.666-52.674
		c2.951-21.872,13.514-39.496,28.457-54.974c2.136-2.212,4.794-3.912,7.146-5.925c2.073-1.773,3.782-1.251,6.151-0.119
		c10.833,5.182,15.562,15.674,21.822,24.729C412.02,143.152,419.096,166.655,417.938,179.696z"/>
	<path fill="none" d="M471.661,160.345c-0.84,4.718-1.674,9.782-2.715,14.804c-0.17,0.83-1.157,1.906-1.953,2.094
		c-1.114,0.266-1.682-1.015-1.944-1.956c-0.955-3.371-1.978-6.688-3.773-9.746c-3.516-5.975-7.359-6.69-12.365-2.029
		c-7.836,7.295-11.51,17.008-14.598,26.815c-2.621,8.332-6.467,16.031-10.305,23.774c-0.613,1.235-1.771,2.202-2.673,3.291
		c0.062-1.358-0.055-2.75,0.214-4.067c1.79-8.811,5.625-17.096,5.943-26.325c0.438-12.568,0.518-25.036-4.501-36.845
		c-2.622-6.178-1.907-10.999,2.511-16.451c5.746-7.091,11.284-14.177,18.778-19.542c3.808-2.726,7.164-3.104,10.144,1.002
		c8.188,11.291,14.356,23.445,15.994,37.54C470.698,155.146,471.2,157.562,471.661,160.345z"/>
	<path fill="none" d="M335.316,144.149c-0.916,2.988-2.533,7.438-3.635,12.009c-4.357,18.048-3.31,35.916,2.16,53.593
		c0.358,1.162,0.463,2.403,0.685,3.608c-1.694-0.02-2.371-1.508-3.03-2.549c-3.647-5.763-6.101-12.127-7.697-18.686
		c-2.479-10.167-6.854-19.331-12.976-27.725c-5.396-7.405-9.493-7.309-14.38,0.398c-1.43,2.257-2.397,4.806-3.822,7.067
		c-0.812,1.287-0.817,3.848-2.907,3.457c-1.633-0.304-1.979-2.632-2.123-4.072c-1.356-13.595-1.102-27.013,4.845-39.761
		c3.067-6.58,7.094-12.532,11.138-18.512c1.434-2.116,3.105-2.94,5.195-1.898c12.521,6.25,20.104,17.096,26.505,28.971
		C335.615,140.692,335.316,141.687,335.316,144.149z"/>
	<path fill="none" d="M507.691,150.968c-1.287,3.571-1.072,7.89-4.82,11.21c-13.146,11.646-22.868,25.986-31.194,41.345
		c-1.422,2.625-3.396,7.029-6.115,5.688c-2.164-1.066,1.152-4.948,2.461-7.266c6.273-11.124,9.887-22.981,10.572-35.722
		c0.506-9.415,0.473-18.666-2.224-27.982c-2.887-9.981,5.312-14.656,11.646-19.819c1.582-1.286,3.545-2.102,5.322-3.147
		c2.754-1.621,4.731-0.937,5.944,1.993C503.717,127.964,506.342,139.122,507.691,150.968z"/>
	<path fill="none" d="M281.761,133.683c-2.7,9.372-3.029,19.131-3.599,28.703c-0.944,15.871,5.266,30.155,12.624,43.896
		c0.557,1.04,3.018,2.024,0.86,3.302c-1.486,0.884-2.438-0.854-3.097-2.224c-9.055-18.814-21.16-35.389-36.525-49.544
		c-1.492-1.377-2.179-2.847-2.15-4.875c0.154-12.729,2.349-24.95,8.224-36.415c1.591-3.107,3.087-3.573,6.295-2.204
		c6.32,2.697,10.925,7.299,15.167,12.381C281.169,128.628,282.048,131.01,281.761,133.683z"/>
	<path fill="none" d="M415.036,270.659c12.521-0.55,21.556,6.231,30.638,12.635c6.557,4.625,12.727,9.795,19.106,14.671
		c2.275,1.736,3.746,2.652-0.01,4.982c-7.393,4.584-13.059-0.16-18.9-2.859c-4.415-2.043-8.096-5.619-12.271-8.248
		c-13.27-8.344-26.779-13.021-41.17-2.249c-0.75,0.562-2.182,1.748-3.29,0.543c-0.909-0.987-0.246-2.233,0.104-3.462
		C392.196,276.305,401.387,270.653,415.036,270.659z"/>
	<path fill="none" d="M366.828,287.207c0.143,0.711,0.925,1.784-0.154,1.993c-0.862,0.169-2.069-0.365-2.835-0.958
		c-5.438-4.214-11.538-5.605-18.401-6.019c-11.263-0.679-18.877,5.95-27.002,11.8c-5.352,3.851-10.565,7.875-17.021,9.778
		c-0.783,0.23-1.618,1.031-2.257,0.875c-3.155-0.781-7.151-0.932-8.675-3.988c-1.692-3.408,2.225-5.016,4.231-6.654
		c9.092-7.41,18.105-14.959,29.015-19.772c9.062-4,18.292-5.835,28.118-3.49C358.693,272.407,366.443,280.826,366.828,287.207z"/>
	<path fill="none" d="M189.179,375.314c1.34,10.724-5.804,21.005-18.399,23.093c-4.224,0.699-7.887,0.686-8.67-5.623
		c-1.672-13.475-0.6-26.914-0.419-40.35c0.072-5.339,4.664-6.258,9.221-5.277c9.84,2.116,17.629,12.077,18.253,23.172
		C189.255,371.985,189.174,373.653,189.179,375.314z"/>
	<path fill="none" d="M439.865,377.236c-0.026-5.981,3.146-10.2,7.537-10.022c4.146,0.164,9.168,5.445,9.104,9.566
		c-0.039,2.479-8.203,6.829-12.863,6.768C439.057,383.488,440.047,379.987,439.865,377.236z"/>
	<path fill="none" d="M241.012,366.911c4.025,0.121,9.438,5.758,9.064,9.439c-0.25,2.469-9.241,7.62-13.604,7.098
		c-5.101-0.613-3.021-5.613-3.745-8.441C231.778,371.284,237.072,366.792,241.012,366.911z"/>
	<path fill="none" d="M599.875,377.48c-0.05-5.31,3.481-10.421,7.063-10.542c3.639-0.123,9.506,5.326,9.672,8.982
		c0.172,3.834-6.055,7.707-12.729,7.582C599.729,383.426,600.139,379.976,599.875,377.48z"/>
	<path fill="none" d="M430.721,469.122c0.396,2.498-1.637,5.598-5.301,5.367c-4.734-0.295-5.771-4.287-5.609-8.688
		c0.146-3.947,1.34-7.789,5.521-7.287C429.784,459.047,430.77,463.458,430.721,469.122z"/>
	<path fill="none" d="M515.463,473.006c-0.371,2.215,0.842,4.766-0.984,6.076c-2.033,1.465-5.127,1.553-7.021,0.273
		c-1.618-1.098,0.119-3.18,1.185-4.623c0.721-0.982,1.156-2.246,2.031-3.029c1.528-1.371,1.811-4.992,3.635-4.449
		C516.842,468.006,514.65,471.223,515.463,473.006z"/>
	<path fill="none" d="M272.108,472.764c4.747,0.516,7.172,1.934,6.896,5.125c-0.405,4.656-5.076,4.895-7.985,5.104
		c-3.456,0.246-2.165-3.641-2.326-5.865C268.425,473.45,270.884,472.821,272.108,472.764z"/>
</g>
</svg>
