<?xml version="1.0" encoding="utf-8"?>
<!-- Generator: Adobe Illustrator 16.0.4, SVG Export Plug-In . SVG Version: 6.00 Build 0)  -->
<!DOCTYPE svg PUBLIC "-//W3C//DTD SVG 1.1//EN" "http://www.w3.org/Graphics/SVG/1.1/DTD/svg11.dtd">
<svg version="1.1" id="Ebene_1" xmlns="http://www.w3.org/2000/svg" xmlns:xlink="http://www.w3.org/1999/xlink" x="0px" y="0px"
	 width="303.333px" height="247.667px" viewBox="0 0 303.333 247.667" enable-background="new 0 0 303.333 247.667"
	 xml:space="preserve">
<g>
	<path fill="none" d="M288.221,80.027c0.574-4.262-0.297-10.83-1.764-17.303c-2.224-9.824-4.851-19.457-10.07-28.318
		c-2.771-4.706-5.793-5.47-10.021-3.002c-6.236,3.638-12.166,7.776-17.568,12.565c-5.012,4.441-6.271,4.526-10.141-0.927
		c-2.99-4.222-5.783-8.604-9.793-11.955c-2.207-1.842-4.539-3.834-7.771-2.04c-3.772,2.1-8.122,3.236-11.293,6.363
		c-5.872,5.792-11.771,11.566-17.461,17.539c-2.727,2.863-4.448,3.406-7.036-0.354c-6.8-9.878-14.08-19.301-23.845-26.691
		c-7.703-5.833-9.398-6.474-17.371-1.077c-9.906,6.707-16.946,16.158-24.261,25.392c-4.596,5.805-5.849,5.385-10.437-0.468
		c-6.365-8.13-13.239-15.767-22.861-20.316c-5.676-2.683-10.59-1.23-14.614,2.934c-3.28,3.393-6.354,7.146-8.739,11.198
		c-2.596,4.42-4.558,3.553-7.516,0.57C50.002,38.433,44.105,33.1,36.181,30.411c-3.293-1.116-5.035-0.839-7.309,1.921
		c-3.641,4.426-5.507,9.625-7.508,14.741c-4.461,11.403-5.721,23.485-5.842,35.573c-0.225,22.67,8.596,41.301,27.312,54.344
		c11.413,7.951,25.167,9.783,38.602,12.033c14.002,2.346,28.021,4.48,40.771,11.508c9.215,5.082,13.841,13.156,16.381,22.83
		c0.271,1.026-0.363,2.293-0.578,3.447c-1.065-0.547-2.562-0.814-3.137-1.686c-2.611-3.967-6.447-6.301-10.539-8.234
		c-14.05-6.641-27.752-2.682-41.306,1.793c-7.234,2.389-13.748,6.598-21.158,8.697c-9.03,2.559-17.096,0.004-19.126-10.537
		c-1.302-6.76,0.178-13.596-2.028-20.273c-2.613-7.916-13.759-14.015-20.779-10.975c-2.033,0.883-2.713,1.585-1.625,3.561
		c3.725,6.764,0.504,12.701-3.033,17.947c-6.688,9.911-11.633,20.695-13.471,32.225c-1.406,8.805,0.568,17.699,8.411,24.457
		c10.22,8.811,22.31,8.941,33.992,7.066c7.375-1.189,11.583,0.178,16.394,5.328c10.508,11.262,22.166,12.859,35.823,6.146
		c9.603-4.716,18.734-10.38,29.1-13.543c11.383-3.476,16.171-1.177,19.195,10.25c0.789,2.973,1.312,5.821,5.082,5.786
		c3.941-0.036,8.166-0.403,9.099-5.237c2.466-12.808,9.521-13.982,21.276-9.938c9.598,3.305,17.771,9.438,27.195,13.104
		c15.104,5.877,28.666,4.28,40.104-9.979c1.521-1.904,3.032-2.146,5.779-1.86c8.271,0.854,16.38,4.887,24.937,1.829
		c9.437-3.368,18.445-7.09,21.978-17.875c4.479-13.687-0.192-25.495-6.963-37.004c-4.979-8.465-11.494-16.364-7.795-27.521
		c1.104-3.34-1.992-4.502-5.142-4.063c-16.003,2.229-22.099,10.526-19.235,26.58c1.754,9.834-5.779,18.739-15.8,15.808
		c-9.922-2.906-19.593-6.273-29.104-10.188c-17.229-7.084-33.93-5.796-48.188,7.545c-0.873,0.815-1.835,2.599-2.841,1.907
		c-1.441-0.987-0.777-3.059-0.438-4.577c2.854-12.47,16.111-24.507,28.904-26.938c14.129-2.685,28.271-5.386,42.229-8.828
		c11.558-2.851,23.188-5.963,32.367-14.406C283.056,119.484,288.458,102.097,288.221,80.027z M126.854,5.618
		c-3.065,0.385-5.394,1.878-5.643,5.712c-0.327,5.006,3.234,6.726,6.993,6.952c2.811,0.17,6.029-1.85,5.925-5.172
		C134.008,9.175,131.841,6.1,126.854,5.618z M152.418,14.034c3.515-0.361,5.836-2.131,5.61-5.88
		c-0.264-4.328-3.116-6.87-7.209-6.792c-4.062,0.077-5.608,3.962-5.403,7.048C145.639,11.784,148.554,13.938,152.418,14.034z
		 M104.43,29.004c4.955,0.047,7.131-1.814,7.53-6.217c0.421-4.638-3.006-6.278-5.943-6.315c-3.204-0.037-6.21,2.275-6.054,6.476
		C100.089,26.347,100.875,29.175,104.43,29.004z M176.129,7.043c-3.787-0.382-6.137,0.573-6.295,5.285
		c-0.174,5.129,3.438,5.973,6.729,6.362c4.316,0.51,5.652-3.312,5.83-6.581C182.592,8.399,180.006,6.649,176.129,7.043z
		 M197.295,17.567c-3.396,0.58-4.897,2.528-4.965,6.285c-0.08,4.133,1.472,6.331,5.562,6.25c3.812-0.073,6.153-2.267,6.388-6.065
		C204.556,19.404,200.918,18.501,197.295,17.567z"/>
	<path fill="#333333" d="M288.221,80.027c0.236,22.07-5.162,39.457-20.047,53.145c-9.18,8.441-20.812,11.558-32.367,14.406
		c-13.955,3.441-28.1,6.146-42.229,8.828c-12.793,2.434-26.052,14.469-28.904,26.938c-0.346,1.521-1.01,3.591,0.438,4.58
		c1.006,0.689,1.967-1.092,2.84-1.909c14.258-13.339,30.955-14.628,48.188-7.544c9.519,3.914,19.188,7.281,29.104,10.188
		c10.021,2.934,17.553-5.972,15.799-15.806c-2.856-16.054,3.234-24.351,19.236-26.582c3.146-0.438,6.243,0.726,5.141,4.063
		c-3.698,11.154,2.816,19.058,7.795,27.521c6.771,11.508,11.439,23.316,6.964,37.002c-3.524,10.785-12.541,14.504-21.978,17.875
		c-8.557,3.059-16.662-0.977-24.936-1.83c-2.748-0.285-4.258-0.043-5.779,1.859c-11.438,14.266-24.996,15.857-40.104,9.98
		c-9.428-3.668-17.603-9.8-27.195-13.105c-11.756-4.051-18.812-2.868-21.275,9.938c-0.935,4.834-5.154,5.202-9.1,5.239
		c-3.771,0.035-4.293-2.813-5.082-5.787c-3.024-11.426-7.812-13.728-19.195-10.25c-10.362,3.164-19.497,8.828-29.1,13.543
		c-13.656,6.718-25.315,5.115-35.822-6.146c-4.812-5.149-9.02-6.52-16.395-5.33c-11.685,1.875-23.773,1.74-33.99-7.062
		c-7.845-6.757-9.818-15.65-8.414-24.46c1.838-11.526,6.787-22.312,13.472-32.223c3.538-5.246,6.758-11.187,3.032-17.947
		c-1.086-1.976-0.407-2.68,1.627-3.562c7.021-3.041,18.166,3.06,20.781,10.974c2.205,6.681,0.728,13.517,2.025,20.274
		c2.031,10.541,10.1,13.097,19.126,10.537c7.411-2.1,13.924-6.311,21.158-8.697c13.553-4.475,27.256-8.434,41.306-1.793
		c4.092,1.935,7.928,4.269,10.539,8.232c0.575,0.871,2.067,1.141,3.137,1.689c0.215-1.156,0.851-2.422,0.578-3.449
		c-2.541-9.674-7.166-17.748-16.381-22.828c-12.746-7.027-26.769-9.162-40.77-11.51c-13.437-2.25-27.188-4.082-38.603-12.033
		c-18.72-13.041-27.536-31.672-27.312-54.344c0.119-12.086,1.381-24.17,5.841-35.572c2.001-5.116,3.866-10.315,7.508-14.741
		c2.271-2.761,4.015-3.037,7.308-1.921c7.926,2.688,13.82,8.021,19.479,13.725c2.958,2.983,4.919,3.851,7.517-0.57
		c2.383-4.053,5.461-7.805,8.738-11.198c4.025-4.164,8.94-5.616,14.614-2.934c9.622,4.549,16.496,12.186,22.862,20.316
		c4.589,5.854,5.84,6.271,10.436,0.468c7.312-9.234,14.354-18.686,24.261-25.392c7.975-5.397,9.667-4.756,17.371,1.077
		c9.765,7.39,17.045,16.813,23.844,26.691c2.589,3.762,4.312,3.219,7.037,0.354c5.689-5.971,11.588-11.747,17.461-17.538
		c3.17-3.126,7.52-4.263,11.293-6.363c3.229-1.794,5.562,0.198,7.771,2.04c4.01,3.351,6.803,7.733,9.793,11.955
		c3.869,5.453,5.129,5.369,10.141,0.927c5.402-4.789,11.332-8.927,17.568-12.565c4.229-2.467,7.252-1.703,10.021,3.002
		c5.226,8.861,7.853,18.495,10.069,28.319C287.924,69.197,288.795,75.765,288.221,80.027z M191.211,105.512
		c1.158-13.042-5.918-36.544-14.729-49.292c-6.264-9.055-10.992-19.547-21.824-24.729c-2.371-1.133-4.08-1.654-6.152,0.119
		c-2.353,2.013-5.011,3.713-7.146,5.925c-14.943,15.48-25.507,33.102-28.457,54.974c-2.562,18.965,0.307,36.53,10.666,52.674
		c1.616,2.525,3.576,5.045,6.595,6.271c0.703-3.17-0.991-5.869-2.048-8.539c-8.084-20.42-3.175-42.51,11.924-58.133
		c10.438-10.807,20.372-5.094,26.7,3.756c4.377,6.123,7.637,13.021,9.355,20.643c3.002,13.27,4.308,26.291-1.996,38.992
		c-0.564,1.15-1.568,2.641-0.588,3.338c1.646,1.172,2.271-1.025,3.195-1.875c1.201-1.107,2.43-2.342,3.182-3.768
		C186.497,133.343,191.741,120.408,191.211,105.512z M244.935,86.162c-0.461-2.782-0.965-5.199-1.242-7.641
		c-1.639-14.095-7.81-26.248-15.993-37.54c-2.979-4.105-6.337-3.728-10.146-1.002c-7.494,5.365-13.029,12.452-18.777,19.542
		c-4.418,5.453-5.134,10.273-2.512,16.451c5.021,11.809,4.938,24.277,4.501,36.846c-0.316,9.229-4.152,17.514-5.941,26.324
		c-0.271,1.316-0.15,2.709-0.215,4.066c0.898-1.088,2.061-2.056,2.674-3.291c3.838-7.744,7.684-15.441,10.305-23.773
		c3.088-9.807,6.762-19.52,14.598-26.814c5.01-4.661,8.854-3.946,12.365,2.029c1.799,3.057,2.818,6.375,3.772,9.746
		c0.267,0.939,0.83,2.221,1.943,1.955c0.799-0.188,1.782-1.265,1.953-2.094C243.264,95.943,244.097,90.878,244.935,86.162z
		 M108.59,69.965c0-2.462,0.302-3.457-0.045-4.101c-6.4-11.875-13.984-22.72-26.505-28.97c-2.09-1.042-3.764-0.218-5.195,1.898
		c-4.044,5.98-8.066,11.932-11.138,18.512c-5.943,12.748-6.201,26.168-4.845,39.762c0.145,1.438,0.49,3.768,2.123,4.071
		c2.09,0.392,2.097-2.17,2.906-3.456c1.426-2.262,2.396-4.811,3.822-7.068c4.887-7.707,8.98-7.803,14.38-0.397
		c6.12,8.394,10.497,17.558,12.977,27.726c1.599,6.56,4.05,12.923,7.696,18.687c0.659,1.041,1.336,2.529,3.03,2.549
		c-0.222-1.205-0.324-2.445-0.685-3.607c-5.469-17.678-6.521-35.545-2.16-53.594C106.055,77.404,107.674,72.953,108.59,69.965z
		 M280.965,76.785c-1.351-11.846-3.976-23.004-8.406-33.7c-1.213-2.93-3.189-3.614-5.943-1.993c-1.777,1.045-3.74,1.861-5.322,3.147
		c-6.336,5.163-14.53,9.837-11.646,19.82c2.692,9.315,2.729,18.566,2.226,27.981c-0.688,12.741-4.299,24.599-10.572,35.722
		c-1.309,2.317-4.625,6.2-2.461,7.266c2.721,1.343,4.693-3.062,6.115-5.688c8.324-15.358,18.049-29.698,31.192-41.345
		C279.89,84.673,279.678,80.355,280.965,76.785z M55.036,59.5c0.286-2.674-0.593-5.055-2.2-6.98
		c-4.242-5.083-8.848-9.686-15.167-12.382c-3.208-1.369-4.704-0.903-6.295,2.204c-5.875,11.465-8.067,23.686-8.224,36.415
		c-0.026,2.028,0.658,3.498,2.149,4.875c15.365,14.155,27.474,30.729,36.524,49.543c0.66,1.369,1.608,3.107,3.098,2.226
		c2.154-1.276-0.307-2.262-0.859-3.303c-7.358-13.738-13.568-28.023-12.625-43.894C52.006,78.63,52.336,68.872,55.036,59.5z
		 M188.31,196.476c-13.647-0.008-22.843,5.646-25.793,16.016c-0.351,1.23-1.015,2.477-0.104,3.463
		c1.107,1.205,2.541,0.021,3.291-0.543c14.391-10.771,27.898-6.096,41.17,2.248c4.176,2.629,7.854,6.203,12.271,8.246
		c5.846,2.701,11.512,7.443,18.899,2.861c3.756-2.33,2.285-3.248,0.011-4.984c-6.384-4.875-12.554-10.043-19.105-14.668
		C209.868,202.707,200.833,195.925,188.31,196.476z M140.097,213.023c-0.383-6.379-8.133-14.799-14.979-16.436
		c-9.825-2.346-19.055-0.51-28.118,3.49c-10.907,4.812-19.923,12.36-29.015,19.771c-2.01,1.639-5.926,3.245-4.231,6.653
		c1.521,3.06,5.521,3.207,8.675,3.988c0.639,0.156,1.475-0.645,2.258-0.875c6.455-1.902,11.669-5.93,17.021-9.777
		c8.125-5.852,15.739-12.479,27.002-11.801c6.863,0.414,12.964,1.805,18.401,6.021c0.766,0.592,1.973,1.127,2.835,0.957
		C141.027,214.806,140.245,213.734,140.097,213.023z"/>
	<path fill="#333333" d="M126.854,5.618c4.983,0.481,7.151,3.558,7.275,7.492c0.104,3.322-3.114,5.342-5.925,5.172
		c-3.759-0.226-7.319-1.946-6.993-6.952C121.464,7.497,123.789,6.003,126.854,5.618z"/>
	<path fill="#333333" d="M152.418,14.034c-3.864-0.097-6.777-2.25-7.002-5.624c-0.205-3.086,1.343-6.972,5.403-7.048
		c4.094-0.078,6.946,2.464,7.209,6.792C158.254,11.902,155.93,13.672,152.418,14.034z"/>
	<path fill="#333333" d="M104.43,29.004c-3.556,0.171-4.342-2.659-4.467-6.056c-0.156-4.201,2.85-6.513,6.054-6.476
		c2.938,0.037,6.365,1.677,5.943,6.315C111.559,27.191,109.386,29.051,104.43,29.004z"/>
	<path fill="#333333" d="M176.129,7.043c3.877-0.393,6.463,1.356,6.266,5.065c-0.178,3.269-1.514,7.091-5.829,6.581
		c-3.288-0.389-6.899-1.233-6.729-6.362C169.995,7.616,172.342,6.661,176.129,7.043z"/>
	<path fill="#333333" d="M197.295,17.567c3.623,0.934,7.265,1.837,6.984,6.47c-0.23,3.799-2.576,5.993-6.388,6.065
		c-4.095,0.08-5.646-2.117-5.562-6.25C192.394,20.095,193.9,18.148,197.295,17.567z"/>
	<path fill="none" d="M191.211,105.512c0.526,14.896-4.717,27.831-11.32,40.356c-0.752,1.426-1.979,2.659-3.182,3.768
		c-0.924,0.852-1.551,3.047-3.195,1.875c-0.98-0.697,0.021-2.188,0.588-3.338c6.304-12.699,4.998-25.723,1.996-38.992
		c-1.723-7.621-4.979-14.518-9.355-20.642c-6.328-8.849-16.262-14.562-26.7-3.757c-15.102,15.625-20.008,37.714-11.924,58.135
		c1.058,2.668,2.751,5.369,2.048,8.537c-3.019-1.228-4.979-3.746-6.595-6.271c-10.359-16.146-13.229-33.711-10.666-52.675
		c2.95-21.872,13.514-39.495,28.457-54.974c2.136-2.212,4.794-3.912,7.146-5.925c2.073-1.773,3.783-1.251,6.152-0.119
		c10.832,5.182,15.562,15.674,21.82,24.73C185.293,68.968,192.372,92.472,191.211,105.512z"/>
	<path fill="none" d="M244.935,86.162c-0.84,4.718-1.674,9.781-2.715,14.804c-0.171,0.83-1.157,1.906-1.953,2.095
		c-1.113,0.266-1.683-1.016-1.942-1.957c-0.955-3.371-1.979-6.688-3.773-9.746c-3.516-5.975-7.359-6.689-12.365-2.029
		c-7.836,7.296-11.51,17.009-14.598,26.816c-2.621,8.332-6.467,16.03-10.305,23.772c-0.613,1.234-1.771,2.201-2.674,3.291
		c0.062-1.356-0.056-2.75,0.215-4.065c1.789-8.812,5.625-17.097,5.941-26.326c0.438-12.567,0.52-25.035-4.501-36.844
		c-2.622-6.179-1.906-11,2.512-16.451c5.745-7.092,11.283-14.178,18.777-19.542c3.809-2.726,7.164-3.104,10.146,1.002
		c8.188,11.291,14.354,23.445,15.993,37.541C243.972,80.962,244.474,83.378,244.935,86.162z"/>
	<path fill="none" d="M108.59,69.965c-0.916,2.988-2.533,7.438-3.635,12.009c-4.357,18.049-3.311,35.916,2.16,53.594
		c0.357,1.162,0.463,2.402,0.685,3.607c-1.694-0.021-2.371-1.508-3.03-2.549c-3.646-5.765-6.101-12.127-7.696-18.687
		c-2.479-10.168-6.854-19.332-12.977-27.726c-5.396-7.405-9.492-7.31-14.38,0.397c-1.43,2.258-2.397,4.807-3.821,7.068
		c-0.812,1.286-0.817,3.848-2.908,3.456c-1.633-0.304-1.979-2.632-2.123-4.071c-1.355-13.596-1.102-27.014,4.846-39.762
		c3.066-6.58,7.094-12.532,11.139-18.512c1.434-2.116,3.104-2.94,5.194-1.898c12.521,6.25,20.104,17.095,26.505,28.97
		C108.889,66.508,108.59,67.503,108.59,69.965z"/>
	<path fill="none" d="M280.965,76.785c-1.287,3.57-1.072,7.89-4.82,11.209C263,99.64,253.278,113.98,244.952,129.339
		c-1.422,2.625-3.396,7.029-6.115,5.688c-2.164-1.064,1.152-4.947,2.461-7.266c6.273-11.123,9.888-22.98,10.572-35.722
		c0.506-9.415,0.473-18.666-2.225-27.981c-2.887-9.982,5.312-14.657,11.646-19.82c1.582-1.286,3.545-2.103,5.321-3.147
		c2.755-1.621,4.729-0.937,5.943,1.993C276.993,53.781,279.618,64.939,280.965,76.785z"/>
	<path fill="none" d="M55.036,59.5c-2.7,9.372-3.029,19.131-3.599,28.703c-0.945,15.871,5.266,30.154,12.623,43.896
		c0.557,1.039,3.019,2.023,0.86,3.301c-1.485,0.885-2.438-0.854-3.097-2.225c-9.055-18.812-21.16-35.388-36.525-49.543
		c-1.492-1.377-2.179-2.848-2.15-4.875c0.154-12.729,2.35-24.949,8.225-36.415c1.591-3.107,3.087-3.573,6.295-2.204
		c6.32,2.697,10.925,7.299,15.167,12.38C54.443,54.445,55.322,56.826,55.036,59.5z"/>
	<path fill="none" d="M188.31,196.476c12.521-0.551,21.558,6.23,30.64,12.635c6.557,4.625,12.727,9.795,19.104,14.67
		c2.274,1.736,3.745,2.652-0.011,4.982c-7.393,4.584-13.059-0.16-18.899-2.859c-4.415-2.043-8.097-5.619-12.271-8.248
		c-13.271-8.344-26.779-13.021-41.17-2.248c-0.75,0.562-2.184,1.748-3.291,0.543c-0.908-0.986-0.246-2.232,0.104-3.463
		C165.47,202.123,174.663,196.468,188.31,196.476z"/>
	<path fill="none" d="M140.102,213.023c0.144,0.711,0.926,1.785-0.153,1.994c-0.862,0.168-2.069-0.365-2.835-0.959
		c-5.438-4.215-11.538-5.605-18.401-6.02c-11.263-0.679-18.877,5.951-27.002,11.801c-5.352,3.852-10.565,7.875-17.021,9.777
		c-0.783,0.229-1.617,1.03-2.256,0.875c-3.156-0.781-7.152-0.933-8.676-3.988c-1.691-3.407,2.225-5.017,4.23-6.652
		c9.093-7.41,18.105-14.959,29.016-19.773c9.062-4,18.292-5.834,28.118-3.488C131.967,198.224,139.717,206.642,140.102,213.023z"/>
</g>
</svg>
